<svg width="497" height="480" viewBox="0 0 497 480" fill="none" xmlns="http://www.w3.org/2000/svg">
<rect width="497" height="480" fill="#E5E5E5"/>
<rect x="11" width="480" height="480" fill="#C4C4C4"/>
<g style="mix-blend-mode:overlay" filter="url(#filter0_f_0_1)">
<path d="M15.6719 173.148C29.3437 172.693 40.6914 171.098 49.7148 168.363C58.7383 165.629 65.9388 161.254 71.3164 155.238C76.694 149.223 80.4765 141.338 82.664 131.586C84.9427 121.742 86.082 109.437 86.082 94.6718C86.082 79.7239 84.6692 67.556 81.8437 58.1679C79.0182 48.7799 74.6432 41.4427 68.7187 36.1562C62.8854 30.7786 55.4114 27.1328 46.2969 25.2187C37.1823 23.3047 26.3359 22.3476 13.7578 22.3476L13.7578 9.49607L215.008 9.49607L260.672 61.9961L292.664 9.49607L492.82 9.49608L492.82 22.3476C480.242 22.3476 469.487 23.3047 460.555 25.2187C451.713 27.1328 444.467 30.7786 438.816 36.1562C433.165 41.4427 429.018 48.7799 426.375 58.1679C423.823 67.556 422.547 79.7239 422.547 94.6718C422.547 109.437 423.641 121.742 425.828 131.586C428.016 141.338 431.798 149.223 437.176 155.238C442.553 161.254 449.754 165.629 458.777 168.363C467.801 171.098 479.148 172.693 492.82 173.148L492.82 186L234.695 186L234.695 173.148C243.719 172.875 251.421 171.736 257.801 169.73C264.272 167.725 269.65 164.991 273.934 161.527C278.217 158.064 281.59 153.962 284.051 149.223C286.603 144.483 288.471 139.288 289.656 133.637C290.932 127.894 291.753 121.742 292.117 115.18C292.482 108.617 292.664 101.781 292.664 94.6718L292.664 43.1289L200.105 190.922L102.625 70.0625L102.625 94.6718C102.625 101.781 102.762 108.617 103.035 115.18C103.4 121.742 104.22 127.894 105.496 133.637C106.772 139.288 108.641 144.483 111.102 149.223C113.654 153.962 117.072 158.064 121.355 161.527C125.639 164.9 130.971 167.634 137.352 169.73C143.732 171.736 151.479 172.875 160.594 173.148L160.594 186L15.6719 186L15.6719 173.148Z" fill="#0667F8"/>
<path d="M15.6719 173.148L15.6386 172.149L14.6719 172.181L14.6719 173.148L15.6719 173.148ZM71.3164 155.238L70.5709 154.572L71.3164 155.238ZM82.664 131.586L81.6898 131.36L81.6883 131.367L82.664 131.586ZM68.7187 36.1562L68.0409 36.8915L68.0469 36.897L68.0529 36.9024L68.7187 36.1562ZM13.7578 22.3476L12.7578 22.3476L12.7578 23.3476L13.7578 23.3476L13.7578 22.3476ZM13.7578 9.49607L13.7578 8.49607L12.7578 8.49607L12.7578 9.49607L13.7578 9.49607ZM215.008 9.49607L215.762 8.8398L215.463 8.49607L215.008 8.49607L215.008 9.49607ZM260.672 61.9961L259.917 62.6523L260.814 63.6838L261.526 62.5164L260.672 61.9961ZM292.664 9.49607L292.664 8.49607L292.102 8.49607L291.81 8.9757L292.664 9.49607ZM492.82 9.49608L493.82 9.49608L493.82 8.49608L492.82 8.49608L492.82 9.49608ZM492.82 22.3476L492.82 23.3476L493.82 23.3476L493.82 22.3476L492.82 22.3476ZM460.555 25.2187L460.345 24.2409L460.343 24.2414L460.555 25.2187ZM438.816 36.1562L439.499 36.8865L439.506 36.8806L438.816 36.1562ZM426.375 58.1679L425.412 57.8969L425.41 57.9056L426.375 58.1679ZM425.828 131.586L424.852 131.803L424.852 131.805L425.828 131.586ZM492.82 173.148L493.82 173.148L493.82 172.181L492.854 172.149L492.82 173.148ZM492.82 186L492.82 187L493.82 187L493.82 186L492.82 186ZM234.695 186L233.695 186L233.695 187L234.695 187L234.695 186ZM234.695 173.148L234.665 172.149L233.695 172.178L233.695 173.148L234.695 173.148ZM257.801 169.73L257.505 168.775L257.501 168.776L257.801 169.73ZM284.051 149.223L283.17 148.749L283.167 148.755L283.163 148.762L284.051 149.223ZM289.656 133.637L288.68 133.42L288.677 133.431L289.656 133.637ZM292.664 43.1289L293.664 43.1289L293.664 39.6481L291.816 42.5981L292.664 43.1289ZM200.105 190.922L199.327 191.55L200.208 192.642L200.953 191.453L200.105 190.922ZM102.625 70.0625L103.403 69.4347L101.625 67.2298L101.625 70.0625L102.625 70.0625ZM103.035 115.18L102.036 115.221L102.037 115.235L103.035 115.18ZM105.496 133.637L104.52 133.854L104.521 133.857L105.496 133.637ZM111.102 149.223L110.214 149.683L110.218 149.69L110.221 149.697L111.102 149.223ZM121.355 161.527L120.727 162.305L120.737 162.313L121.355 161.527ZM137.352 169.73L137.039 170.681L137.052 170.684L137.352 169.73ZM160.594 173.148L161.594 173.148L161.594 172.178L160.624 172.149L160.594 173.148ZM160.594 186L160.594 187L161.594 187L161.594 186L160.594 186ZM15.6719 186L14.6719 186L14.6719 187L15.6719 187L15.6719 186ZM15.7052 174.148C29.4287 173.69 40.8699 172.088 50.0048 169.32L49.4248 167.406C40.5129 170.107 29.2588 171.695 15.6386 172.149L15.7052 174.148ZM50.0048 169.32C59.1739 166.542 66.5427 162.079 72.0619 155.905L70.5709 154.572C65.3349 160.429 58.3026 164.716 49.4248 167.406L50.0048 169.32ZM72.0619 155.905C77.5773 149.735 81.4238 141.684 83.6398 131.805L81.6883 131.367C79.5293 140.992 75.8107 148.71 70.5709 154.572L72.0619 155.905ZM83.6383 131.811C85.9399 121.868 87.082 109.482 87.082 94.6718L85.082 94.6718C85.082 109.393 83.9455 121.616 81.6898 131.36L83.6383 131.811ZM87.082 94.6718C87.082 79.6718 85.6656 67.3966 82.8013 57.8797L80.8862 58.4561C83.6729 67.7153 85.082 79.776 85.082 94.6718L87.082 94.6718ZM82.8013 57.8797C79.9351 48.3564 75.4756 40.8452 69.3845 35.4101L68.0529 36.9024C73.8108 42.0401 78.1014 49.2034 80.8862 58.4561L82.8013 57.8797ZM69.3965 35.421C63.4091 29.9013 55.7624 26.1847 46.5024 24.2401L46.0913 26.1974C55.0604 28.0809 62.3617 31.6559 68.0409 36.8915L69.3965 35.421ZM46.5024 24.2401C37.3014 22.3079 26.3827 21.3476 13.7578 21.3476L13.7578 23.3476C26.2892 23.3476 37.0632 24.3015 46.0913 26.1974L46.5024 24.2401ZM14.7578 22.3476L14.7578 9.49607L12.7578 9.49607L12.7578 22.3476L14.7578 22.3476ZM13.7578 10.4961L215.008 10.4961L215.008 8.49607L13.7578 8.49607L13.7578 10.4961ZM214.253 10.1523L259.917 62.6523L261.426 61.3398L215.762 8.8398L214.253 10.1523ZM261.526 62.5164L293.518 10.0164L291.81 8.9757L259.818 61.4757L261.526 62.5164ZM292.664 10.4961L492.82 10.4961L492.82 8.49608L292.664 8.49607L292.664 10.4961ZM491.82 9.49608L491.82 22.3476L493.82 22.3476L493.82 9.49608L491.82 9.49608ZM492.82 21.3476C480.196 21.3476 469.366 22.3078 460.345 24.2409L460.764 26.1965C469.607 24.3016 480.288 23.3476 492.82 23.3476L492.82 21.3476ZM460.343 24.2414C451.351 26.188 443.931 29.9086 438.127 35.4318L439.506 36.8806C445.004 31.6487 452.075 28.0776 460.766 26.1961L460.343 24.2414ZM438.133 35.426C432.318 40.8658 428.092 48.3785 425.412 57.8969L427.337 58.439C429.944 49.1814 434.012 42.0196 439.499 36.8865L438.133 35.426ZM425.41 57.9056C422.826 67.4119 421.547 79.6773 421.547 94.6718L423.547 94.6718C423.547 79.7705 424.82 67.7 427.34 58.4303L425.41 57.9056ZM421.547 94.6718C421.547 109.48 422.643 121.863 424.852 131.803L426.804 131.369C424.638 121.621 423.547 109.395 423.547 94.6718L421.547 94.6718ZM424.852 131.805C427.068 141.684 430.915 149.735 436.43 155.905L437.921 154.572C432.681 148.71 428.963 140.992 426.804 131.367L424.852 131.805ZM436.43 155.905C441.949 162.079 449.318 166.542 458.487 169.32L459.067 167.406C450.189 164.716 443.157 160.429 437.921 154.572L436.43 155.905ZM458.487 169.32C467.622 172.088 479.063 173.69 492.787 174.148L492.854 172.149C479.233 171.695 467.979 170.107 459.067 167.406L458.487 169.32ZM491.82 173.148L491.82 186L493.82 186L493.82 173.148L491.82 173.148ZM492.82 185L234.695 185L234.695 187L492.82 187L492.82 185ZM235.695 186L235.695 173.148L233.695 173.148L233.695 186L235.695 186ZM234.726 174.148C243.811 173.873 251.609 172.725 258.101 170.684L257.501 168.776C251.232 170.747 243.627 171.877 234.665 172.149L234.726 174.148ZM258.097 170.686C264.662 168.651 270.16 165.864 274.562 162.305L273.305 160.75C269.139 164.117 263.882 166.799 257.505 168.775L258.097 170.686ZM274.562 162.305C278.95 158.758 282.412 154.549 284.938 149.683L283.163 148.762C280.768 153.375 277.485 157.37 273.305 160.75L274.562 162.305ZM284.931 149.697C287.532 144.867 289.432 139.58 290.635 133.842L288.677 133.431C287.511 138.995 285.674 144.099 283.17 148.749L284.931 149.697ZM290.632 133.854C291.921 128.053 292.748 121.846 293.116 115.235L291.119 115.124C290.757 121.639 289.943 127.736 288.68 133.42L290.632 133.854ZM293.116 115.235C293.481 108.653 293.664 101.798 293.664 94.6718L291.664 94.6718C291.664 101.764 291.482 108.582 291.119 115.124L293.116 115.235ZM293.664 94.6718L293.664 43.1289L291.664 43.1289L291.664 94.6718L293.664 94.6718ZM291.816 42.5981L199.258 190.391L200.953 191.453L293.512 43.6597L291.816 42.5981ZM200.884 190.294L103.403 69.4347L101.847 70.6903L199.327 191.55L200.884 190.294ZM101.625 70.0625L101.625 94.6718L103.625 94.6718L103.625 70.0625L101.625 70.0625ZM101.625 94.6718C101.625 101.794 101.762 108.644 102.036 115.221L104.034 115.138C103.761 108.59 103.625 101.768 103.625 94.6718L101.625 94.6718ZM102.037 115.235C102.404 121.846 103.231 128.053 104.52 133.854L106.472 133.42C105.209 127.736 104.396 121.639 104.034 115.124L102.037 115.235ZM104.521 133.857C105.814 139.585 107.71 144.862 110.214 149.683L111.989 148.762C109.571 144.104 107.73 138.991 106.472 133.416L104.521 133.857ZM110.221 149.697C112.838 154.556 116.342 158.76 120.727 162.305L121.984 160.75C117.801 157.368 114.47 153.368 111.982 148.749L110.221 149.697ZM120.737 162.313C125.131 165.772 130.573 168.556 137.039 170.68L137.664 168.78C131.37 166.712 126.148 164.027 121.974 160.742L120.737 162.313ZM137.052 170.684C143.545 172.725 151.388 173.873 160.564 174.148L160.624 172.149C151.57 171.877 143.919 170.746 137.651 168.776L137.052 170.684ZM159.594 173.148L159.594 186L161.594 186L161.594 173.148L159.594 173.148ZM160.594 185L15.6719 185L15.6719 187L160.594 187L160.594 185ZM16.6719 186L16.6719 173.148L14.6719 173.148L14.6719 186L16.6719 186Z" fill="black"/>
</g>
<g opacity="0.5" filter="url(#filter1_f_0_1)">
<path d="M103.867 333.832C109.427 334.926 114.349 335.883 118.633 336.703C123.008 337.432 127.018 338.07 130.664 338.617C134.401 339.073 137.91 339.438 141.191 339.711C144.564 339.893 148.118 339.984 151.855 339.984C159.421 339.984 165.755 338.754 170.859 336.293C176.055 333.741 180.202 329.411 183.301 323.305C186.4 317.198 188.587 309.132 189.863 299.105C191.23 288.988 191.914 276.319 191.914 261.098C191.914 249.887 191.139 240.134 189.59 231.84C188.04 223.546 185.716 216.482 182.617 210.648C179.609 204.815 175.872 200.076 171.406 196.43C166.94 192.693 161.79 189.822 155.957 187.816C150.124 185.72 143.652 184.307 136.543 183.578C129.434 182.758 121.686 182.348 113.301 182.348V169.496H396.035V182.348C387.103 182.348 379.401 182.758 372.93 183.578C366.458 184.398 360.944 185.766 356.387 187.68C351.921 189.594 348.275 192.191 345.449 195.473C342.624 198.663 340.436 202.719 338.887 207.641C337.337 212.562 336.289 218.35 335.742 225.004C335.195 231.658 334.922 239.405 334.922 248.246C334.922 253.168 335.104 258.09 335.469 263.012C335.833 267.934 336.243 272.901 336.699 277.914C337.246 282.927 337.702 287.986 338.066 293.09C338.431 298.194 338.613 303.389 338.613 308.676C338.613 316.697 337.383 323.715 334.922 329.73C332.461 335.655 328.952 340.759 324.395 345.043C319.928 349.327 314.505 352.836 308.125 355.57C301.745 358.305 294.635 360.447 286.797 361.996C278.958 363.637 270.482 364.73 261.367 365.277C252.253 365.915 242.728 366.234 232.793 366.234C217.389 366.234 203.353 365.733 190.684 364.73C178.014 363.728 166.393 362.361 155.82 360.629C145.247 358.988 135.495 357.029 126.562 354.75C117.63 352.562 109.245 350.284 101.406 347.914L103.867 333.832Z" fill="#F80606"/>
<path d="M103.867 333.832L104.06 332.851L103.058 332.654L102.882 333.66L103.867 333.832ZM118.633 336.703L118.445 337.685L118.457 337.688L118.468 337.69L118.633 336.703ZM130.664 338.617L130.516 339.606L130.529 339.608L130.543 339.61L130.664 338.617ZM141.191 339.711L141.108 340.707L141.123 340.709L141.137 340.709L141.191 339.711ZM170.859 336.293L171.294 337.194L171.3 337.191L170.859 336.293ZM189.863 299.105L188.872 298.972L188.871 298.979L189.863 299.105ZM182.617 210.648L181.728 211.107L181.734 211.118L182.617 210.648ZM171.406 196.43L170.764 197.197L170.774 197.204L171.406 196.43ZM155.957 187.816L155.619 188.758L155.632 188.762L155.957 187.816ZM136.543 183.578L136.428 184.572L136.441 184.573L136.543 183.578ZM113.301 182.348H112.301V183.348H113.301V182.348ZM113.301 169.496V168.496H112.301V169.496H113.301ZM396.035 169.496H397.035V168.496H396.035V169.496ZM396.035 182.348V183.348H397.035V182.348H396.035ZM356.387 187.68L355.999 186.758L355.993 186.761L356.387 187.68ZM345.449 195.473L346.198 196.136L346.207 196.125L345.449 195.473ZM336.699 277.914L335.703 278.005L335.704 278.014L335.705 278.023L336.699 277.914ZM334.922 329.73L335.845 330.114L335.847 330.109L334.922 329.73ZM324.395 345.043L323.71 344.314L323.702 344.321L324.395 345.043ZM286.797 361.996L286.603 361.015L286.592 361.017L286.797 361.996ZM261.367 365.277L261.307 364.279L261.297 364.28L261.367 365.277ZM155.82 360.629L155.982 359.642L155.974 359.641L155.82 360.629ZM126.562 354.75L126.81 353.781L126.8 353.779L126.562 354.75ZM101.406 347.914L100.421 347.742L100.269 348.615L101.117 348.871L101.406 347.914ZM103.674 334.813C109.235 335.907 114.159 336.865 118.445 337.685L118.821 335.721C114.539 334.901 109.619 333.944 104.06 332.851L103.674 334.813ZM118.468 337.69C122.848 338.419 126.864 339.058 130.516 339.606L130.812 337.628C127.173 337.082 123.168 336.445 118.797 335.717L118.468 337.69ZM130.543 339.61C134.291 340.067 137.813 340.433 141.108 340.707L141.274 338.714C138.008 338.442 134.511 338.079 130.785 337.625L130.543 339.61ZM141.137 340.709C144.53 340.893 148.102 340.984 151.855 340.984V338.984C148.135 338.984 144.598 338.894 141.245 338.712L141.137 340.709ZM151.855 340.984C159.523 340.984 166.017 339.738 171.294 337.194L170.425 335.392C165.494 337.77 159.318 338.984 151.855 338.984V340.984ZM171.3 337.191C176.724 334.526 181.014 330.021 184.193 323.757L182.409 322.852C179.39 328.802 175.385 332.956 170.418 335.395L171.3 337.191ZM184.193 323.757C187.362 317.512 189.571 309.323 190.855 299.232L188.871 298.979C187.603 308.941 185.438 316.884 182.409 322.852L184.193 323.757ZM190.854 299.239C192.23 289.062 192.914 276.344 192.914 261.098H190.914C190.914 276.294 190.231 288.915 188.872 298.972L190.854 299.239ZM192.914 261.098C192.914 249.844 192.137 240.027 190.573 231.656L188.607 232.023C190.142 240.241 190.914 249.93 190.914 261.098H192.914ZM190.573 231.656C189.01 223.288 186.658 216.123 183.5 210.179L181.734 211.118C184.774 216.841 187.071 223.803 188.607 232.023L190.573 231.656ZM183.506 210.19C180.444 204.252 176.625 199.399 172.039 195.655L170.774 197.204C175.12 200.752 178.775 205.379 181.728 211.107L183.506 210.19ZM172.048 195.663C167.483 191.843 162.224 188.913 156.282 186.871L155.632 188.762C161.357 190.73 166.398 193.543 170.765 197.197L172.048 195.663ZM156.295 186.875C150.375 184.748 143.823 183.32 136.645 182.583L136.441 184.573C143.482 185.295 149.872 186.692 155.619 188.757L156.295 186.875ZM136.658 182.585C129.504 181.759 121.718 181.348 113.301 181.348V183.348C121.654 183.348 129.363 183.756 136.428 184.572L136.658 182.585ZM114.301 182.348V169.496H112.301V182.348H114.301ZM113.301 170.496H396.035V168.496H113.301V170.496ZM395.035 169.496V182.348H397.035V169.496H395.035ZM396.035 181.348C387.075 181.348 379.329 181.759 372.804 182.586L373.055 184.57C379.473 183.757 387.131 183.348 396.035 183.348V181.348ZM372.804 182.586C366.27 183.414 360.662 184.799 355.999 186.758L356.774 188.602C361.226 186.732 366.647 185.383 373.055 184.57L372.804 182.586ZM355.993 186.761C351.404 188.727 347.628 191.41 344.691 194.82L346.207 196.125C348.922 192.973 352.437 190.46 356.781 188.599L355.993 186.761ZM344.701 194.81C341.764 198.125 339.516 202.312 337.933 207.34L339.841 207.941C341.357 203.125 343.483 199.201 346.198 196.136L344.701 194.81ZM337.933 207.34C336.356 212.35 335.297 218.215 334.746 224.922L336.739 225.086C337.281 218.486 338.319 212.775 339.841 207.941L337.933 207.34ZM334.746 224.922C334.196 231.61 333.922 239.386 333.922 248.246H335.922C335.922 239.424 336.195 231.705 336.739 225.086L334.746 224.922ZM333.922 248.246C333.922 253.193 334.105 258.139 334.471 263.086L336.466 262.938C336.103 258.04 335.922 253.143 335.922 248.246H333.922ZM334.471 263.086C334.836 268.013 335.247 272.986 335.703 278.005L337.695 277.824C337.24 272.816 336.83 267.854 336.466 262.938L334.471 263.086ZM335.705 278.023C336.251 283.023 336.705 288.069 337.069 293.161L339.064 293.019C338.698 287.902 338.242 282.831 337.693 277.806L335.705 278.023ZM337.069 293.161C337.432 298.241 337.613 303.412 337.613 308.676H339.613C339.613 303.366 339.43 298.147 339.064 293.019L337.069 293.161ZM337.613 308.676C337.613 316.596 336.398 323.481 333.996 329.352L335.847 330.109C338.368 323.949 339.613 316.797 339.613 308.676H337.613ZM333.998 329.347C331.59 335.144 328.161 340.13 323.71 344.314L325.079 345.772C329.742 341.388 333.332 336.166 335.845 330.114L333.998 329.347ZM323.702 344.321C319.333 348.512 314.014 351.958 307.731 354.651L308.519 356.489C314.996 353.713 320.524 350.141 325.087 345.765L323.702 344.321ZM307.731 354.651C301.424 357.354 294.383 359.477 286.603 361.015L286.991 362.977C294.888 361.416 302.066 359.255 308.519 356.489L307.731 354.651ZM286.592 361.017C278.807 362.647 270.38 363.735 261.307 364.279L261.427 366.276C270.584 365.726 279.109 364.627 287.002 362.975L286.592 361.017ZM261.297 364.28C252.208 364.916 242.707 365.234 232.793 365.234V367.234C242.749 367.234 252.297 366.915 261.437 366.275L261.297 364.28ZM232.793 365.234C217.41 365.234 203.401 364.734 190.762 363.734L190.605 365.727C203.305 366.732 217.368 367.234 232.793 367.234V365.234ZM190.762 363.734C178.116 362.733 166.523 361.369 155.982 359.642L155.659 361.616C166.264 363.353 177.913 364.723 190.605 365.727L190.762 363.734ZM155.974 359.641C145.427 358.004 135.707 356.051 126.81 353.781L126.315 355.719C135.283 358.007 145.067 359.972 155.667 361.617L155.974 359.641ZM126.8 353.779C117.883 351.595 109.515 349.321 101.696 346.957L101.117 348.871C108.974 351.247 117.377 353.53 126.325 355.721L126.8 353.779ZM102.391 348.086L104.852 334.004L102.882 333.66L100.421 347.742L102.391 348.086Z" fill="black"/>
</g>
<g style="mix-blend-mode:overlay" filter="url(#filter2_f_0_1)">
<path d="M6.67188 189.148C20.3438 188.693 31.6914 187.098 40.7149 184.363C49.7383 181.629 56.9388 177.254 62.3164 171.238C67.694 165.223 71.4766 157.339 73.6641 147.586C75.9427 137.742 77.082 125.438 77.082 110.672C77.082 95.724 75.6693 83.556 72.8438 74.168C70.0182 64.78 65.6432 57.4427 59.7188 52.1563C53.8854 46.7787 46.4115 43.1328 37.2969 41.2188C28.1823 39.3047 17.3359 38.3477 4.75781 38.3477L4.75781 25.4961L206.008 25.4961L251.672 77.9961L283.664 25.4961L483.82 25.4961L483.82 38.3477C471.242 38.3477 460.487 39.3047 451.555 41.2188C442.714 43.1328 435.468 46.7787 429.816 52.1563C424.165 57.4427 420.018 64.78 417.375 74.168C414.823 83.556 413.547 95.724 413.547 110.672C413.547 125.438 414.641 137.742 416.828 147.586C419.016 157.339 422.798 165.223 428.176 171.238C433.553 177.254 440.754 181.629 449.777 184.363C458.801 187.098 470.148 188.693 483.82 189.148L483.82 202L225.695 202L225.695 189.148C234.719 188.875 242.421 187.736 248.801 185.73C255.272 183.725 260.65 180.991 264.934 177.527C269.217 174.064 272.59 169.962 275.051 165.223C277.603 160.483 279.471 155.288 280.656 149.637C281.932 143.895 282.753 137.742 283.117 131.18C283.482 124.617 283.664 117.781 283.664 110.672L283.664 59.1289L191.105 206.922L93.625 86.0625L93.625 110.672C93.625 117.781 93.7617 124.617 94.0352 131.18C94.3998 137.742 95.2201 143.895 96.4961 149.637C97.7721 155.288 99.6406 160.483 102.102 165.223C104.654 169.962 108.072 174.064 112.355 177.527C116.639 180.9 121.971 183.634 128.352 185.73C134.732 187.736 142.479 188.875 151.594 189.148L151.594 202L6.67188 202L6.67188 189.148Z" fill="#FBFF3D"/>
</g>
<g style="mix-blend-mode:overlay" filter="url(#filter3_f_0_1)">
<path d="M15.6719 443.148C29.3438 442.693 40.6914 441.098 49.7149 438.363C58.7383 435.629 65.9388 431.254 71.3164 425.238C76.694 419.223 80.4766 411.339 82.6641 401.586C84.9427 391.742 86.082 379.438 86.082 364.672C86.082 349.724 84.6693 337.556 81.8438 328.168C79.0182 318.78 74.6432 311.443 68.7188 306.156C62.8854 300.779 55.4115 297.133 46.2969 295.219C37.1823 293.305 26.3359 292.348 13.7578 292.348L13.7578 279.496L215.008 279.496L260.672 331.996L292.664 279.496L492.82 279.496L492.82 292.348C480.242 292.348 469.487 293.305 460.555 295.219C451.714 297.133 444.468 300.779 438.816 306.156C433.165 311.443 429.018 318.78 426.375 328.168C423.823 337.556 422.547 349.724 422.547 364.672C422.547 379.438 423.641 391.742 425.828 401.586C428.016 411.339 431.798 419.223 437.176 425.238C442.553 431.254 449.754 435.629 458.777 438.363C467.801 441.098 479.148 442.693 492.82 443.148L492.82 456L234.695 456L234.695 443.148C243.719 442.875 251.421 441.736 257.801 439.73C264.272 437.725 269.65 434.991 273.934 431.527C278.217 428.064 281.59 423.962 284.051 419.223C286.603 414.483 288.471 409.288 289.656 403.637C290.932 397.895 291.753 391.742 292.117 385.18C292.482 378.617 292.664 371.781 292.664 364.672L292.664 313.129L200.105 460.922L102.625 340.063L102.625 364.672C102.625 371.781 102.762 378.617 103.035 385.18C103.4 391.742 104.22 397.895 105.496 403.637C106.772 409.288 108.641 414.483 111.102 419.223C113.654 423.962 117.072 428.064 121.355 431.527C125.639 434.9 130.971 437.634 137.352 439.73C143.732 441.736 151.479 442.875 160.594 443.148L160.594 456L15.6719 456L15.6719 443.148Z" fill="#FBFF3D"/>
</g>
<g style="mix-blend-mode:overlay" filter="url(#filter4_f_0_1)">
<path d="M15.6719 458.148C29.3437 457.693 40.6914 456.098 49.7148 453.363C58.7383 450.629 65.9388 446.254 71.3164 440.238C76.694 434.223 80.4765 426.338 82.664 416.586C84.9427 406.742 86.082 394.437 86.082 379.672C86.082 364.724 84.6692 352.556 81.8437 343.168C79.0182 333.78 74.6432 326.443 68.7187 321.156C62.8854 315.779 55.4114 312.133 46.2969 310.219C37.1823 308.305 26.3359 307.348 13.7578 307.348L13.7578 294.496L215.008 294.496L260.672 346.996L292.664 294.496L492.82 294.496L492.82 307.348C480.242 307.348 469.487 308.305 460.555 310.219C451.713 312.133 444.467 315.779 438.816 321.156C433.165 326.443 429.018 333.78 426.375 343.168C423.823 352.556 422.547 364.724 422.547 379.672C422.547 394.437 423.641 406.742 425.828 416.586C428.016 426.338 431.798 434.223 437.176 440.238C442.553 446.254 449.754 450.629 458.777 453.363C467.801 456.098 479.148 457.693 492.82 458.148L492.82 471L234.695 471L234.695 458.148C243.719 457.875 251.421 456.736 257.801 454.73C264.272 452.725 269.65 449.991 273.934 446.527C278.217 443.064 281.59 438.962 284.051 434.223C286.603 429.483 288.471 424.288 289.656 418.637C290.932 412.894 291.753 406.742 292.117 400.18C292.482 393.617 292.664 386.781 292.664 379.672L292.664 328.129L200.105 475.922L102.625 355.062L102.625 379.672C102.625 386.781 102.762 393.617 103.035 400.18C103.4 406.742 104.22 412.894 105.496 418.637C106.772 424.288 108.641 429.483 111.102 434.223C113.654 438.962 117.072 443.064 121.355 446.527C125.639 449.9 130.971 452.634 137.352 454.73C143.732 456.736 151.479 457.875 160.594 458.148L160.594 471L15.6719 471L15.6719 458.148Z" fill="#0667F8"/>
<path d="M15.6719 458.148L15.6386 457.149L14.6719 457.181L14.6719 458.148L15.6719 458.148ZM71.3164 440.238L70.5709 439.572L71.3164 440.238ZM82.664 416.586L81.6898 416.36L81.6883 416.367L82.664 416.586ZM68.7187 321.156L68.0409 321.891L68.0469 321.897L68.0529 321.902L68.7187 321.156ZM13.7578 307.348L12.7578 307.348L12.7578 308.348L13.7578 308.348L13.7578 307.348ZM13.7578 294.496L13.7578 293.496L12.7578 293.496L12.7578 294.496L13.7578 294.496ZM215.008 294.496L215.762 293.84L215.463 293.496L215.008 293.496L215.008 294.496ZM260.672 346.996L259.917 347.652L260.814 348.684L261.526 347.516L260.672 346.996ZM292.664 294.496L292.664 293.496L292.102 293.496L291.81 293.976L292.664 294.496ZM492.82 294.496L493.82 294.496L493.82 293.496L492.82 293.496L492.82 294.496ZM492.82 307.348L492.82 308.348L493.82 308.348L493.82 307.348L492.82 307.348ZM460.555 310.219L460.345 309.241L460.343 309.241L460.555 310.219ZM438.816 321.156L439.499 321.887L439.506 321.881L438.816 321.156ZM426.375 343.168L425.412 342.897L425.41 342.906L426.375 343.168ZM425.828 416.586L424.852 416.803L424.852 416.805L425.828 416.586ZM492.82 458.148L493.82 458.148L493.82 457.181L492.854 457.149L492.82 458.148ZM492.82 471L492.82 472L493.82 472L493.82 471L492.82 471ZM234.695 471L233.695 471L233.695 472L234.695 472L234.695 471ZM234.695 458.148L234.665 457.149L233.695 457.178L233.695 458.148L234.695 458.148ZM257.801 454.73L257.505 453.775L257.501 453.776L257.801 454.73ZM284.051 434.223L283.17 433.749L283.167 433.755L283.163 433.762L284.051 434.223ZM289.656 418.637L288.68 418.42L288.677 418.431L289.656 418.637ZM292.664 328.129L293.664 328.129L293.664 324.648L291.816 327.598L292.664 328.129ZM200.105 475.922L199.327 476.55L200.208 477.642L200.953 476.453L200.105 475.922ZM102.625 355.062L103.403 354.435L101.625 352.23L101.625 355.062L102.625 355.062ZM103.035 400.18L102.036 400.221L102.037 400.235L103.035 400.18ZM105.496 418.637L104.52 418.854L104.521 418.857L105.496 418.637ZM111.102 434.223L110.214 434.683L110.218 434.69L110.221 434.697L111.102 434.223ZM121.355 446.527L120.727 447.305L120.737 447.313L121.355 446.527ZM137.352 454.73L137.039 455.681L137.052 455.684L137.352 454.73ZM160.594 458.148L161.594 458.148L161.594 457.178L160.624 457.149L160.594 458.148ZM160.594 471L160.594 472L161.594 472L161.594 471L160.594 471ZM15.6719 471L14.6719 471L14.6719 472L15.6719 472L15.6719 471ZM15.7052 459.148C29.4287 458.69 40.8699 457.088 50.0048 454.32L49.4248 452.406C40.5129 455.107 29.2588 456.695 15.6386 457.149L15.7052 459.148ZM50.0048 454.32C59.1739 451.542 66.5427 447.079 72.0619 440.905L70.5709 439.572C65.3349 445.429 58.3026 449.716 49.4248 452.406L50.0048 454.32ZM72.0619 440.905C77.5773 434.735 81.4238 426.684 83.6398 416.805L81.6883 416.367C79.5293 425.992 75.8107 433.71 70.5709 439.572L72.0619 440.905ZM83.6383 416.811C85.9399 406.868 87.082 394.482 87.082 379.672L85.082 379.672C85.082 394.393 83.9455 406.616 81.6898 416.36L83.6383 416.811ZM87.082 379.672C87.082 364.672 85.6656 352.397 82.8013 342.88L80.8862 343.456C83.6729 352.715 85.082 364.776 85.082 379.672L87.082 379.672ZM82.8013 342.88C79.9351 333.356 75.4756 325.845 69.3845 320.41L68.0529 321.902C73.8108 327.04 78.1014 334.203 80.8862 343.456L82.8013 342.88ZM69.3965 320.421C63.4091 314.901 55.7624 311.185 46.5024 309.24L46.0913 311.197C55.0604 313.081 62.3617 316.656 68.0409 321.891L69.3965 320.421ZM46.5024 309.24C37.3014 307.308 26.3827 306.348 13.7578 306.348L13.7578 308.348C26.2892 308.348 37.0632 309.301 46.0913 311.197L46.5024 309.24ZM14.7578 307.348L14.7578 294.496L12.7578 294.496L12.7578 307.348L14.7578 307.348ZM13.7578 295.496L215.008 295.496L215.008 293.496L13.7578 293.496L13.7578 295.496ZM214.253 295.152L259.917 347.652L261.426 346.34L215.762 293.84L214.253 295.152ZM261.526 347.516L293.518 295.016L291.81 293.976L259.818 346.476L261.526 347.516ZM292.664 295.496L492.82 295.496L492.82 293.496L292.664 293.496L292.664 295.496ZM491.82 294.496L491.82 307.348L493.82 307.348L493.82 294.496L491.82 294.496ZM492.82 306.348C480.196 306.348 469.366 307.308 460.345 309.241L460.764 311.197C469.607 309.302 480.288 308.348 492.82 308.348L492.82 306.348ZM460.343 309.241C451.351 311.188 443.931 314.909 438.127 320.432L439.506 321.881C445.004 316.649 452.075 313.078 460.766 311.196L460.343 309.241ZM438.133 320.426C432.318 325.866 428.092 333.378 425.412 342.897L427.337 343.439C429.944 334.181 434.012 327.02 439.499 321.886L438.133 320.426ZM425.41 342.906C422.826 352.412 421.547 364.677 421.547 379.672L423.547 379.672C423.547 364.771 424.82 352.7 427.34 343.43L425.41 342.906ZM421.547 379.672C421.547 394.48 422.643 406.863 424.852 416.803L426.804 416.369C424.638 406.621 423.547 394.395 423.547 379.672L421.547 379.672ZM424.852 416.805C427.068 426.684 430.915 434.735 436.43 440.905L437.921 439.572C432.681 433.71 428.963 425.992 426.804 416.367L424.852 416.805ZM436.43 440.905C441.949 447.079 449.318 451.542 458.487 454.32L459.067 452.406C450.189 449.716 443.157 445.429 437.921 439.572L436.43 440.905ZM458.487 454.32C467.622 457.088 479.063 458.69 492.787 459.148L492.854 457.149C479.233 456.695 467.979 455.107 459.067 452.406L458.487 454.32ZM491.82 458.148L491.82 471L493.82 471L493.82 458.148L491.82 458.148ZM492.82 470L234.695 470L234.695 472L492.82 472L492.82 470ZM235.695 471L235.695 458.148L233.695 458.148L233.695 471L235.695 471ZM234.726 459.148C243.811 458.873 251.609 457.725 258.101 455.684L257.501 453.776C251.232 455.747 243.627 456.877 234.665 457.149L234.726 459.148ZM258.097 455.686C264.662 453.651 270.16 450.864 274.562 447.305L273.305 445.75C269.139 449.117 263.882 451.799 257.505 453.775L258.097 455.686ZM274.562 447.305C278.95 443.758 282.412 439.549 284.938 434.683L283.163 433.762C280.768 438.375 277.485 442.37 273.305 445.75L274.562 447.305ZM284.931 434.697C287.532 429.867 289.432 424.58 290.635 418.842L288.677 418.431C287.511 423.995 285.674 429.099 283.17 433.749L284.931 434.697ZM290.632 418.854C291.921 413.053 292.748 406.846 293.116 400.235L291.119 400.124C290.757 406.639 289.943 412.736 288.68 418.42L290.632 418.854ZM293.116 400.235C293.481 393.653 293.664 386.798 293.664 379.672L291.664 379.672C291.664 386.764 291.482 393.582 291.119 400.124L293.116 400.235ZM293.664 379.672L293.664 328.129L291.664 328.129L291.664 379.672L293.664 379.672ZM291.816 327.598L199.258 475.391L200.953 476.453L293.512 328.66L291.816 327.598ZM200.884 475.294L103.403 354.435L101.847 355.69L199.327 476.55L200.884 475.294ZM101.625 355.062L101.625 379.672L103.625 379.672L103.625 355.062L101.625 355.062ZM101.625 379.672C101.625 386.794 101.762 393.644 102.036 400.221L104.034 400.138C103.761 393.59 103.625 386.768 103.625 379.672L101.625 379.672ZM102.037 400.235C102.404 406.846 103.231 413.053 104.52 418.854L106.472 418.42C105.209 412.736 104.396 406.639 104.034 400.124L102.037 400.235ZM104.521 418.857C105.814 424.585 107.71 429.862 110.214 434.683L111.989 433.762C109.571 429.104 107.73 423.991 106.472 418.416L104.521 418.857ZM110.221 434.697C112.838 439.556 116.342 443.76 120.727 447.305L121.984 445.75C117.801 442.368 114.47 438.368 111.982 433.749L110.221 434.697ZM120.737 447.313C125.131 450.772 130.573 453.556 137.039 455.68L137.664 453.78C131.37 451.712 126.148 449.027 121.974 445.742L120.737 447.313ZM137.052 455.684C143.545 457.725 151.388 458.873 160.564 459.148L160.624 457.149C151.57 456.877 143.919 455.746 137.651 453.776L137.052 455.684ZM159.594 458.148L159.594 471L161.594 471L161.594 458.148L159.594 458.148ZM160.594 470L15.6719 470L15.6719 472L160.594 472L160.594 470ZM16.6719 471L16.6719 458.148L14.6719 458.148L14.6719 471L16.6719 471Z" fill="black"/>
</g>
<defs>
<filter id="filter0_f_0_1" x="9.75781" y="5.49606" width="487.062" height="189.426" filterUnits="userSpaceOnUse" color-interpolation-filters="sRGB">
<feFlood flood-opacity="0" result="BackgroundImageFix"/>
<feBlend mode="normal" in="SourceGraphic" in2="BackgroundImageFix" result="shape"/>
<feGaussianBlur stdDeviation="2" result="effect1_foregroundBlur_0_1"/>
</filter>
<filter id="filter1_f_0_1" x="97.4062" y="165.496" width="302.629" height="204.738" filterUnits="userSpaceOnUse" color-interpolation-filters="sRGB">
<feFlood flood-opacity="0" result="BackgroundImageFix"/>
<feBlend mode="normal" in="SourceGraphic" in2="BackgroundImageFix" result="shape"/>
<feGaussianBlur stdDeviation="2" result="effect1_foregroundBlur_0_1"/>
</filter>
<filter id="filter2_f_0_1" x="0.757812" y="21.4961" width="487.063" height="189.426" filterUnits="userSpaceOnUse" color-interpolation-filters="sRGB">
<feFlood flood-opacity="0" result="BackgroundImageFix"/>
<feBlend mode="normal" in="SourceGraphic" in2="BackgroundImageFix" result="shape"/>
<feGaussianBlur stdDeviation="2" result="effect1_foregroundBlur_0_1"/>
</filter>
<filter id="filter3_f_0_1" x="9.75781" y="275.496" width="487.063" height="189.426" filterUnits="userSpaceOnUse" color-interpolation-filters="sRGB">
<feFlood flood-opacity="0" result="BackgroundImageFix"/>
<feBlend mode="normal" in="SourceGraphic" in2="BackgroundImageFix" result="shape"/>
<feGaussianBlur stdDeviation="2" result="effect1_foregroundBlur_0_1"/>
</filter>
<filter id="filter4_f_0_1" x="9.75781" y="290.496" width="487.062" height="189.426" filterUnits="userSpaceOnUse" color-interpolation-filters="sRGB">
<feFlood flood-opacity="0" result="BackgroundImageFix"/>
<feBlend mode="normal" in="SourceGraphic" in2="BackgroundImageFix" result="shape"/>
<feGaussianBlur stdDeviation="2" result="effect1_foregroundBlur_0_1"/>
</filter>
</defs>
</svg>
